<svg width="1041" height="302" viewBox="0 0 1041 302" fill="none" xmlns="http://www.w3.org/2000/svg">
<rect width="1041" height="302" fill="#5977EE"/>
<path d="M482.024 191.48H485.896V196.696C485.896 197.656 486.184 197.784 487.752 197.784C488.456 197.784 491.432 197.784 492.328 197.784C493.672 197.784 493.928 197.336 494.12 194.104C494.888 194.712 496.552 195.288 497.576 195.544C497.128 200.12 496.04 201.272 492.648 201.272C491.752 201.272 488.168 201.272 487.304 201.272C483.08 201.272 482.024 200.152 482.024 196.728V191.48ZM496.328 191.896L499.752 190.456C501.512 192.856 503.368 195.992 503.976 198.232L500.232 199.832C499.72 197.688 498.024 194.392 496.328 191.896ZM477.512 190.68L481 191.928C480.232 194.648 479.112 197.912 477.608 200.024L474.152 198.104C475.624 196.184 476.84 193.304 477.512 190.68ZM477.352 173.176H500.392V188.408H488.264C490.408 189.496 492.904 191.16 494.184 192.504L491.464 195.128C490.216 193.72 487.496 191.768 485.192 190.52L487.464 188.408H477.352V173.176ZM480.968 182.296V185.08H487.016V182.296H480.968ZM490.728 182.296V185.08H496.616V182.296H490.728ZM480.968 176.472V179.192H487.016V176.472H480.968ZM490.728 176.472V179.192H496.616V176.472H490.728ZM523.816 186.744V188.536H531.208V186.744H523.816ZM523.816 182.424V184.152H531.208V182.424H523.816ZM520.968 192.536L524.36 193.528C523.368 195.8 521.864 198.488 520.648 200.152C519.944 199.576 518.504 198.744 517.64 198.296C518.888 196.792 520.168 194.552 520.968 192.536ZM530.056 193.464L533.384 192.184C534.44 194.104 535.816 196.76 536.488 198.328L532.936 199.864C532.36 198.2 531.08 195.512 530.056 193.464ZM507.4 174.808L509.64 172.056C511.24 172.952 513.736 174.328 514.984 175.192L512.648 178.232C511.496 177.304 509.064 175.832 507.4 174.808ZM505.896 183.448L508.072 180.696C509.704 181.528 512.136 182.808 513.416 183.64L511.112 186.744C509.96 185.848 507.56 184.408 505.896 183.448ZM506.28 199.384C507.592 196.888 509.416 192.792 510.792 189.048L513.928 191.128C512.712 194.584 511.208 198.296 509.8 201.464L506.28 199.384ZM520.424 179.672H524.712C525.032 178.744 525.352 177.752 525.512 176.92H519.304V182.36C519.304 188.056 518.728 196.536 514.888 201.88C514.216 201.272 512.584 200.248 511.656 199.832C515.272 194.872 515.56 187.544 515.56 182.36V173.496H535.688V176.92H526.248L529.864 177.56L528.616 179.672H534.76V191.288H529.16V198.232C529.16 199.864 528.904 200.792 527.784 201.304C526.664 201.816 525.192 201.88 523.176 201.848C523.048 200.856 522.632 199.48 522.216 198.552C523.336 198.584 524.648 198.584 525 198.584C525.384 198.584 525.512 198.488 525.512 198.136V191.288H520.424V179.672ZM539.464 175.064L541.288 172.248C543.08 173.144 545.672 174.648 546.952 175.704L545.032 178.84C543.816 177.752 541.256 176.12 539.464 175.064ZM537.896 183.704L539.624 180.856C541.416 181.656 543.976 183.064 545.288 184.056L543.432 187.288C542.216 186.2 539.72 184.696 537.896 183.704ZM538.504 198.776C539.976 196.408 542.088 192.408 543.72 188.728L546.216 191.32C544.744 194.68 543.016 198.296 541.384 201.432L538.504 198.776ZM554.152 201.56C553.928 200.696 553.288 199.16 552.744 198.424C553.352 198.104 553.992 197.432 553.992 196.12V180.44C557.384 179.928 561.128 179.064 563.432 178.136L566.44 181.144C565.064 181.592 563.528 182.008 561.96 182.36C562.184 184.248 562.504 186.072 562.92 187.8C563.912 186.872 564.904 185.816 565.608 184.984L568.264 187.832C566.696 188.92 565.192 190.104 563.848 191.032C564.904 193.976 566.376 196.44 568.488 197.976C567.624 198.68 566.376 200.184 565.768 201.24C561.48 197.56 559.784 190.872 558.824 182.968L557.352 183.192V196.248L560.936 194.872C561.064 195.832 561.416 197.176 561.672 197.912C555.848 200.376 554.76 200.984 554.152 201.56ZM548.36 175.064C553.832 174.36 559.976 173.208 563.752 171.864L566.792 175C562.504 176.312 556.968 177.336 551.88 178.008V183.192C551.88 188.632 551.304 196.76 547.944 202.008C547.304 201.432 545.768 200.504 544.904 200.184C548.104 195.256 548.36 188.184 548.36 183.192V175.064Z" fill="white"/>
<path d="M445.3 229.42L447.22 229.6C447.1 230.5 446.94 231.34 446.76 232.16C447.46 234.06 448.58 235.14 450 235.76V228.08H445.32V226.28H456.74V228.08H451.96V230.98H457.74V232.76H451.96V236.3C452.84 236.44 453.82 236.48 454.84 236.48C455.74 236.48 459.12 236.48 460.28 236.46C459.98 236.9 459.66 237.82 459.58 238.38H454.74C450.76 238.38 447.86 237.7 446.02 234.5C445.34 236.24 444.4 237.64 443.16 238.72C442.86 238.4 442.08 237.74 441.64 237.46C443.84 235.8 444.9 232.96 445.3 229.42ZM449.36 220.48L451.24 219.94C451.66 220.66 452.14 221.6 452.36 222.3H459.46V226.98H457.52V224.1H444.4V226.98H442.54V222.3H450.18C449.96 221.7 449.66 221.04 449.36 220.48ZM474.24 221.88H476V233.06H474.24V221.88ZM477.82 220.38H479.64V236.28C479.64 237.4 479.4 237.94 478.74 238.26C478.08 238.58 476.94 238.62 475.42 238.62C475.34 238.1 475.08 237.24 474.82 236.68C475.94 236.72 477.04 236.72 477.4 236.7C477.7 236.7 477.82 236.6 477.82 236.28V220.38ZM463.6 220.54L465.34 220.9C465.2 221.56 465.02 222.24 464.82 222.9H466.58V220.22H468.38V222.9H472.24V224.62H468.38V226.46H473.04V228.2H468.38V229.96H472.42V235.3C472.42 236.08 472.3 236.56 471.78 236.84C471.26 237.12 470.48 237.14 469.42 237.14C469.38 236.64 469.14 235.98 468.92 235.52C469.66 235.54 470.24 235.54 470.46 235.52C470.64 235.52 470.7 235.46 470.7 235.26V231.66H468.38V238.66H466.58V231.66H464.38V237.06H462.68V229.96H466.58V228.2H461.82V226.46H463.22C462.82 226.24 462.08 225.96 461.64 225.8C462.52 224.48 463.2 222.46 463.6 220.54ZM466.58 226.46V224.62H464.2C463.94 225.32 463.64 225.94 463.32 226.46H466.58ZM489.76 228.86L491.6 229.22C490.98 231.82 489.94 234.36 488.74 236.02C488.4 235.72 487.58 235.22 487.14 235C488.32 233.5 489.24 231.18 489.76 228.86ZM496.04 229.24L497.72 228.68C498.82 230.78 499.78 233.5 500.1 235.32L498.28 235.96C498 234.14 497.08 231.34 496.04 229.24ZM490.18 220.2L492.06 220.62C491.78 221.72 491.42 222.82 491.04 223.86H498.66L498.96 223.8L500.28 224.06C500.02 225.6 499.68 227.4 499.4 228.52L497.78 228.22C497.92 227.54 498.06 226.58 498.2 225.62H494.9V236.48C494.9 237.46 494.72 238 494.1 238.32C493.48 238.64 492.58 238.7 491.3 238.7C491.22 238.16 490.92 237.32 490.64 236.8C491.54 236.82 492.4 236.82 492.68 236.8C492.94 236.8 493.02 236.74 493.02 236.48V225.62H490.3C489.7 226.88 489.06 228 488.36 228.92C488.02 228.58 487.26 227.96 486.82 227.68C488.34 225.9 489.52 223.06 490.18 220.2ZM486.04 220.2L487.84 220.74C487.3 222.16 486.62 223.62 485.84 224.98V238.66H484.04V227.78C483.48 228.56 482.9 229.28 482.3 229.9C482.12 229.44 481.58 228.42 481.26 227.98C483.16 226.08 484.98 223.16 486.04 220.2ZM511.9 228.7L513.38 227.86C514.44 229.26 515.8 231.18 516.44 232.36L514.84 233.36C514.26 232.14 512.96 230.16 511.9 228.7ZM512.86 220.08L514.68 220.5C514.44 221.42 514.16 222.34 513.84 223.24H519.7C519.7 223.24 519.7 223.9 519.7 224.14C519.4 233.26 519.16 236.4 518.34 237.4C517.84 238.08 517.34 238.26 516.58 238.36C515.88 238.44 514.68 238.42 513.54 238.36C513.5 237.84 513.26 237.04 512.9 236.52C514.2 236.64 515.4 236.64 515.9 236.64C516.3 236.64 516.52 236.58 516.76 236.32C517.38 235.64 517.66 232.6 517.9 224.98H513.16C512.6 226.28 511.96 227.44 511.3 228.36C511 228.08 510.28 227.6 509.84 227.32V236.6H504.36V238.14H502.62V223.34H504.9C505.16 222.36 505.46 221.06 505.58 220.08L507.64 220.42C507.32 221.42 506.92 222.48 506.58 223.34H509.84V227.14C511.16 225.4 512.24 222.72 512.86 220.08ZM504.36 225.02V228.82H508.1V225.02H504.36ZM504.36 234.9H508.1V230.46H504.36V234.9ZM526.7 232.24H528.62V235.88C528.62 236.46 528.8 236.56 529.86 236.56C530.34 236.56 532.64 236.56 533.28 236.56C534.2 236.56 534.36 236.24 534.46 234.1C534.86 234.4 535.68 234.68 536.18 234.8C535.96 237.6 535.4 238.28 533.42 238.28C532.92 238.28 530.16 238.28 529.68 238.28C527.32 238.28 526.7 237.74 526.7 235.9V232.24ZM528.62 231.54L529.86 230.36C531.32 231.08 533.12 232.26 534.02 233.16L532.68 234.46C531.84 233.58 530.1 232.32 528.62 231.54ZM535.72 232.46L537.4 231.76C538.54 233.26 539.74 235.28 540.16 236.66L538.32 237.46C537.94 236.1 536.84 234.02 535.72 232.46ZM524.02 231.94L525.72 232.56C525.24 234.22 524.54 236.28 523.56 237.6L521.86 236.68C522.82 235.46 523.58 233.54 524.02 231.94ZM523.82 220.98H538.02V230.22H523.82V220.98ZM525.62 226.36V228.58H530.02V226.36H525.62ZM531.86 226.36V228.58H536.16V226.36H531.86ZM525.62 222.64V224.8H530.02V222.64H525.62ZM531.86 222.64V224.8H536.16V222.64H531.86ZM552.18 229.06V230.54H557.64V229.06H552.18ZM552.18 226.28V227.74H557.64V226.28H552.18ZM551.04 232.92L552.72 233.4C552.08 234.86 551.1 236.5 550.28 237.54C549.94 237.26 549.22 236.82 548.8 236.6C549.64 235.64 550.5 234.22 551.04 232.92ZM556.72 233.38L558.36 232.74C559.1 233.96 560.04 235.6 560.5 236.58L558.74 237.36C558.34 236.34 557.44 234.64 556.72 233.38ZM542.64 221.64L543.74 220.32C544.8 220.9 546.32 221.8 547.08 222.36L545.94 223.88C545.22 223.28 543.7 222.32 542.64 221.64ZM541.66 227.04L542.76 225.7C543.82 226.24 545.34 227.08 546.12 227.62L545 229.14C544.26 228.58 542.76 227.66 541.66 227.04ZM542.02 237.38C542.88 235.82 544.08 233.2 544.96 230.9L546.5 231.94C545.7 234.08 544.66 236.5 543.72 238.42L542.02 237.38ZM547.7 221.12H560.08V222.84H549.54V226.64C549.54 230.16 549.2 235.3 546.82 238.64C546.48 238.34 545.68 237.84 545.22 237.64C547.48 234.46 547.7 229.92 547.7 226.64V221.12ZM553.94 222.96L556.04 223.36L555.24 224.88H559.4V231.96H555.72V236.82C555.72 237.68 555.58 238.14 554.96 238.4C554.34 238.66 553.46 238.68 552.16 238.66C552.08 238.2 551.86 237.52 551.66 237.04C552.5 237.08 553.34 237.06 553.58 237.06C553.84 237.06 553.92 236.98 553.92 236.76V231.96H550.5V224.88H553.38C553.58 224.26 553.82 223.52 553.94 222.96ZM562.08 233.54L569.26 232.98V231.24L563.22 231.72L563.04 230.14L569.26 229.66V228.22C567.42 228.36 565.56 228.46 563.82 228.52C563.78 228.06 563.58 227.38 563.4 226.96C568.34 226.74 574 226.24 577.44 225.48L578.36 227.04C576.34 227.48 573.82 227.82 571.18 228.06V229.52L578.1 229L578.28 230.54L571.18 231.1V232.84L579.78 232.16L579.96 233.78L571.18 234.48V235.84C571.18 236.66 571.4 236.84 572.58 236.84C573.14 236.84 575.88 236.84 576.6 236.84C577.56 236.84 577.72 236.48 577.86 234.7C578.28 235 579.06 235.28 579.58 235.38C579.34 237.8 578.78 238.48 576.74 238.48C576.16 238.48 572.96 238.48 572.42 238.48C569.94 238.48 569.26 237.92 569.26 235.86V234.62L562.26 235.18L562.08 233.54ZM564.6 220L566.42 220.46C566.26 220.94 566.06 221.42 565.84 221.9H570.58V223.5H567.66C568.06 224.22 568.42 224.98 568.6 225.52L566.96 226.18C566.78 225.48 566.26 224.42 565.76 223.5H565.04C564.46 224.52 563.84 225.46 563.2 226.18C562.84 225.9 562.06 225.4 561.6 225.14C562.88 223.88 563.98 221.94 564.6 220ZM572.6 220L574.44 220.44C574.28 220.94 574.1 221.42 573.88 221.9H579.84V223.5H576.12C576.46 224.06 576.74 224.62 576.9 225.06L575.26 225.68C575.08 225.08 574.64 224.24 574.2 223.5H573.06C572.48 224.46 571.84 225.34 571.18 226C570.82 225.68 570.02 225.16 569.56 224.92C570.9 223.74 572 221.9 572.6 220ZM583.3 221.7L584.56 220.54C585.68 221.46 587.14 222.8 587.86 223.68L586.5 225.02C585.84 224.12 584.4 222.7 583.3 221.7ZM581.86 226.34H586.8V234.68L588.66 233.4C588.78 233.92 589.04 234.68 589.24 235.06C585.86 237.48 585.28 237.94 584.96 238.36C584.76 237.96 584.26 237.26 583.94 236.98C584.32 236.66 584.92 235.94 584.92 234.9V228.16H581.86V226.34ZM589.34 221.48H599V230.8H597.1V229.78H591.68V235.56C591.68 236.4 591.88 236.56 593.1 236.56C593.66 236.56 596.32 236.56 597.04 236.56C598.2 236.56 598.4 236.06 598.52 233.3C598.96 233.64 599.78 233.96 600.34 234.08C600.08 237.44 599.48 238.38 597.16 238.38C596.62 238.38 593.46 238.38 592.94 238.38C590.5 238.38 589.72 237.8 589.72 235.56V227.98H597.1V223.36H589.34V221.48Z" fill="white" fill-opacity="0.8"/>
<path d="M500.379 77.9088C499.757 78.5247 499.265 79.0816 499.282 79.1406C499.299 79.1997 499.271 79.225 499.22 79.1969C499.088 79.1153 498.103 80.1447 498.202 80.2544C498.247 80.305 498.233 80.3163 498.165 80.2769C498.039 80.2066 497.479 80.7634 497.479 80.9603C497.479 81.025 497.442 81.0531 497.397 81.025C497.293 80.9603 497.04 81.2331 497.128 81.3175C497.164 81.3541 497.133 81.3822 497.063 81.3822C496.894 81.3822 496.405 81.8716 496.405 82.0403C496.405 82.1106 496.377 82.1416 496.34 82.1078C496.272 82.0403 495.395 82.8503 494.222 84.0541C492.253 86.0791 490.605 87.685 490.555 87.6372C490.521 87.6034 490.496 87.6625 490.496 87.7666C490.496 87.8706 490.448 87.9213 490.389 87.8847C490.29 87.8256 490.234 87.9663 490.271 88.18C490.276 88.225 490.223 88.2475 490.15 88.2334C490.077 88.2194 490.029 88.27 490.046 88.3488C490.062 88.4275 490.029 88.4641 489.975 88.4303C489.922 88.3966 489.615 88.6412 489.3 88.9731C488.412 89.9097 487.275 91.0375 486.42 91.8334C485.993 92.2328 485.675 92.5591 485.714 92.5591C485.754 92.5591 485.63 92.6913 485.433 92.8544C484.733 93.4309 483.495 94.7613 483.383 95.0566C483.343 95.1606 483.237 95.245 483.147 95.245C483.057 95.245 482.981 95.3209 482.981 95.4109C482.981 95.5009 482.941 95.5544 482.896 95.5262C482.787 95.4587 480.821 97.3459 480.911 97.4331C480.947 97.4697 480.916 97.5006 480.843 97.5006C480.77 97.5006 480.466 97.7537 480.171 98.0631C478.759 99.5369 477.915 100.4 477.882 100.4C477.862 100.4 477.432 100.814 476.923 101.317L476 102.234V127.637C476 145.007 476.034 153.104 476.11 153.247C476.273 153.551 476.442 153.497 476.804 153.033C476.982 152.806 477.164 152.642 477.207 152.671C477.249 152.699 477.288 152.634 477.288 152.533C477.288 152.432 477.313 152.372 477.347 152.406C477.403 152.462 485.501 144.478 491.224 138.721C491.711 138.231 493.463 136.482 495.117 134.837C496.77 133.191 498.092 131.793 498.053 131.732C498.016 131.67 498.03 131.65 498.087 131.684C498.233 131.774 498.79 131.237 498.7 131.093C498.658 131.026 498.677 131.006 498.745 131.048C498.866 131.124 499.304 130.727 499.304 130.539C499.304 130.483 499.33 130.46 499.363 130.491C499.563 130.694 501.791 128.148 501.732 127.783C501.698 127.575 501.67 116.013 501.67 102.088C501.67 88.1631 501.633 76.7725 501.588 76.7781C501.543 76.7838 501 77.2928 500.382 77.9088H500.379ZM538.48 78.1422C537.726 78.8959 537.11 79.5766 537.11 79.6609C537.11 79.7453 537.079 79.7791 537.045 79.7425C536.995 79.6891 533.589 83.0191 529.269 87.3447L524.974 91.6534L521.11 95.5319V121.266C521.11 135.422 521.135 147.001 521.169 147.001C521.287 147.001 521.74 146.486 521.678 146.421C521.641 146.385 521.681 146.357 521.765 146.354C521.849 146.351 522.232 146.005 522.614 145.58C522.997 145.158 523.621 144.52 523.998 144.16C524.375 143.8 525.368 142.816 526.2 141.966C527.033 141.117 528.02 140.127 528.394 139.764C530.304 137.908 531.637 136.58 531.597 136.58C531.572 136.58 531.994 136.13 532.534 135.579C533.074 135.028 533.552 134.595 533.597 134.62C533.642 134.645 533.679 134.578 533.679 134.477C533.679 134.375 533.71 134.322 533.743 134.358C533.825 134.44 534.106 134.17 534.106 134.007C534.106 133.942 534.143 133.906 534.188 133.931C534.264 133.976 534.835 133.453 534.778 133.391C534.764 133.374 534.787 133.352 534.832 133.34C534.981 133.301 535.158 133.093 535.11 133.011C535.082 132.966 535.141 132.93 535.237 132.93C535.333 132.93 535.38 132.882 535.344 132.823C535.307 132.764 535.321 132.716 535.375 132.716C535.428 132.716 536.519 131.678 537.799 130.412L540.125 128.109V102.605C540.125 88.5766 540.094 77.0256 540.06 76.9328C539.959 76.6684 539.945 76.6825 538.488 78.1366L538.48 78.1422Z" fill="#D23E31"/>
<path d="M501.67 76.66C501.67 76.7191 501.743 76.7669 501.83 76.7669C501.917 76.7669 501.99 76.7191 501.99 76.66C501.99 76.6009 501.917 76.5531 501.83 76.5531C501.743 76.5531 501.67 76.6009 501.67 76.66ZM501.957 76.8372C501.917 76.8766 501.886 88.4641 501.889 102.588L501.895 128.267L506.468 132.778C510.293 136.549 516.058 142.245 518.345 144.506C518.654 144.812 519.321 145.499 519.822 146.03C520.322 146.562 520.795 147.001 520.868 147.003C520.975 147.009 521.003 141.797 521.003 121.283V95.5572L520.508 95.1044C520.114 94.738 519.729 94.3629 519.352 93.9794C518.778 93.3972 517.22 91.8334 514.973 89.5891C514.627 89.2431 513.665 88.2672 512.838 87.4263C512.011 86.5853 511.336 85.9216 511.336 85.9553C511.336 85.9891 511.01 85.6741 510.611 85.255C509.822 84.4408 509.025 83.6345 508.22 82.8363C506.381 81.0053 505.97 80.5919 503.728 78.325C502.218 76.7978 502.097 76.6966 501.954 76.84L501.957 76.8372ZM540.294 77.0059C540.257 77.1381 540.229 88.7172 540.229 102.738V128.227L552.849 140.838C562.853 150.834 565.525 153.45 565.738 153.45H566.006V102.212L553.279 89.4878C546.279 82.4903 540.51 76.7641 540.457 76.7641C540.403 76.7641 540.333 76.8738 540.297 77.0059H540.294Z" fill="#3B3E43"/>
<path d="M540.117 76.7388C540.069 85.9244 540.088 128.177 540.142 128.12C540.246 128.016 540.302 76.6572 540.195 76.6572C540.174 76.6572 540.153 76.6658 540.138 76.6811C540.122 76.6964 540.114 76.7171 540.114 76.7388H540.117ZM501.678 102.195C501.684 116.178 501.726 127.743 501.774 127.89C501.822 128.036 501.875 116.595 501.897 102.462C501.928 81.9587 501.909 76.7669 501.802 76.7669C501.695 76.7669 501.67 81.9166 501.678 102.195ZM521.053 121.283C521.053 135.461 521.067 141.243 521.082 134.136C521.096 127.029 521.098 115.43 521.082 108.36C521.065 101.292 521.053 107.105 521.053 121.283ZM536.893 131.298L536.199 132.024L536.924 131.329C537.599 130.685 537.698 130.573 537.619 130.573C537.602 130.573 537.276 130.899 536.893 131.298ZM487.571 90.6213C487.469 90.7394 487.424 90.835 487.469 90.835C487.514 90.835 487.635 90.7366 487.737 90.6213C487.838 90.5031 487.883 90.4075 487.838 90.4075C487.793 90.4075 487.672 90.5059 487.571 90.6213ZM483.253 94.9103C483.214 94.975 483.22 95.0256 483.27 95.0256C483.321 95.0256 483.284 95.0734 483.197 95.1325C483.085 95.2056 483.079 95.2366 483.175 95.2394C483.251 95.2394 483.341 95.1663 483.374 95.0734C483.45 94.8738 483.357 94.7472 483.256 94.9103H483.253ZM532.528 135.587C531.986 136.139 531.578 136.606 531.614 136.628C531.651 136.651 532.129 136.215 532.675 135.666C533.22 135.118 533.631 134.648 533.589 134.626C533.547 134.603 533.068 135.036 532.528 135.587ZM486.679 143.274L486.364 143.623L486.713 143.308C486.839 143.202 486.956 143.086 487.062 142.959C487.062 142.877 486.974 142.948 486.679 143.274ZM476.697 153.129C476.591 153.247 476.529 153.343 476.557 153.343C476.585 153.343 476.723 153.244 476.858 153.129C476.993 153.014 477.057 152.915 476.998 152.915C476.939 152.915 476.804 153.014 476.697 153.129Z" fill="black"/>
<path d="M571.625 99.0625C571.625 94.09 570.242 89.3209 567.781 85.8044C565.318 82.2888 561.98 80.3125 558.5 80.3125C561.981 80.3125 565.319 78.3372 567.781 74.8206C570.241 71.305 571.625 66.535 571.625 61.5625C571.625 66.535 573.008 71.3041 575.469 74.8206C577.931 78.3363 581.269 80.3125 584.75 80.3125C581.269 80.3125 577.931 82.2878 575.469 85.8044C573.008 89.32 571.625 94.09 571.625 99.0625ZM553.813 80.3125C553.813 77.8263 553.121 75.4413 551.891 73.6834C550.66 71.9256 548.991 70.9375 547.25 70.9375C548.991 70.9375 550.66 69.9494 551.891 68.1916C553.122 66.4338 553.813 64.0488 553.813 61.5625C553.813 64.0488 554.504 66.4338 555.734 68.1916C556.965 69.9494 558.634 70.9375 560.375 70.9375C558.634 70.9375 556.965 71.9256 555.734 73.6834C554.503 75.4413 553.813 77.8263 553.813 80.3125ZM559.438 101.875C559.438 99.3888 558.746 97.0038 557.516 95.2459C556.285 93.4881 554.616 92.5 552.875 92.5C554.616 92.5 556.285 91.5119 557.516 89.7541C558.747 87.9963 559.438 85.6113 559.438 83.125C559.438 85.6113 560.129 87.9963 561.359 89.7541C562.59 91.5119 564.259 92.5 566 92.5C564.259 92.5 562.59 93.4881 561.359 95.2459C560.128 97.0038 559.438 99.3888 559.438 101.875Z" fill="#FAAD14"/>
</svg>
