<svg width="1000" height="500" viewBox="0 0 1000 500" fill="none" xmlns="http://www.w3.org/2000/svg">
<path d="M294.175 167.575C292.794 168.944 291.7 170.181 291.737 170.313C291.775 170.444 291.712 170.5 291.6 170.438C291.306 170.256 289.119 172.544 289.338 172.788C289.438 172.9 289.406 172.925 289.256 172.838C288.975 172.681 287.731 173.919 287.731 174.356C287.731 174.5 287.65 174.563 287.55 174.5C287.319 174.356 286.756 174.963 286.95 175.15C287.031 175.231 286.962 175.294 286.806 175.294C286.431 175.294 285.344 176.381 285.344 176.756C285.344 176.913 285.281 176.981 285.2 176.906C285.05 176.756 283.1 178.556 280.494 181.231C276.119 185.731 272.456 189.3 272.344 189.194C272.269 189.119 272.212 189.25 272.212 189.481C272.212 189.713 272.106 189.825 271.975 189.744C271.756 189.613 271.631 189.925 271.712 190.4C271.725 190.5 271.606 190.55 271.444 190.519C271.281 190.488 271.175 190.6 271.212 190.775C271.25 190.95 271.175 191.031 271.056 190.956C270.938 190.881 270.256 191.425 269.556 192.163C267.581 194.244 265.056 196.75 263.156 198.519C262.206 199.406 261.5 200.131 261.587 200.131C261.675 200.131 261.4 200.425 260.963 200.788C259.406 202.069 256.656 205.025 256.406 205.681C256.319 205.913 256.081 206.1 255.881 206.1C255.681 206.1 255.513 206.269 255.513 206.469C255.513 206.669 255.425 206.788 255.325 206.725C255.081 206.575 250.713 210.769 250.913 210.962C250.994 211.044 250.925 211.112 250.762 211.112C250.6 211.112 249.925 211.675 249.269 212.362C246.131 215.637 244.256 217.556 244.181 217.556C244.138 217.556 243.181 218.475 242.05 219.594L240 221.631V278.081C240 316.681 240.075 334.675 240.244 334.994C240.606 335.669 240.981 335.55 241.788 334.519C242.181 334.012 242.587 333.65 242.681 333.712C242.775 333.775 242.862 333.631 242.862 333.406C242.862 333.181 242.919 333.05 242.994 333.125C243.119 333.25 261.112 315.506 273.831 302.712C274.913 301.625 278.806 297.737 282.481 294.081C286.156 290.425 289.094 287.319 289.006 287.181C288.925 287.044 288.956 287 289.081 287.075C289.406 287.275 290.644 286.081 290.444 285.762C290.35 285.612 290.394 285.569 290.544 285.662C290.812 285.831 291.788 284.95 291.788 284.531C291.788 284.406 291.844 284.356 291.919 284.425C292.362 284.875 297.312 279.219 297.181 278.406C297.106 277.944 297.044 252.25 297.044 221.306C297.044 190.363 296.962 165.05 296.862 165.063C296.762 165.075 295.556 166.206 294.181 167.575H294.175ZM378.844 168.094C377.169 169.769 375.8 171.281 375.8 171.469C375.8 171.656 375.731 171.731 375.656 171.65C375.544 171.531 367.975 178.931 358.375 188.544L348.831 198.119L340.244 206.738V263.925C340.244 295.381 340.3 321.112 340.375 321.112C340.637 321.112 341.644 319.969 341.506 319.825C341.425 319.744 341.512 319.681 341.7 319.675C341.887 319.669 342.737 318.9 343.587 317.956C344.438 317.019 345.825 315.6 346.662 314.8C347.5 314 349.706 311.812 351.556 309.925C353.406 308.037 355.6 305.837 356.431 305.031C360.675 300.906 363.637 297.956 363.55 297.956C363.494 297.956 364.431 296.956 365.631 295.731C366.831 294.506 367.894 293.544 367.994 293.6C368.094 293.656 368.175 293.506 368.175 293.281C368.175 293.056 368.244 292.937 368.319 293.019C368.5 293.2 369.125 292.6 369.125 292.237C369.125 292.094 369.206 292.012 369.306 292.069C369.475 292.169 370.744 291.006 370.619 290.869C370.587 290.831 370.637 290.781 370.737 290.756C371.069 290.669 371.462 290.206 371.356 290.025C371.294 289.925 371.425 289.844 371.637 289.844C371.85 289.844 371.956 289.737 371.875 289.606C371.794 289.475 371.825 289.369 371.944 289.369C372.062 289.369 374.488 287.062 377.331 284.25L382.5 279.131V222.456C382.5 191.281 382.431 165.613 382.356 165.406C382.131 164.819 382.1 164.85 378.863 168.081L378.844 168.094Z" fill="#D23E31"/>
<path d="M297.044 164.8C297.044 164.931 297.206 165.037 297.4 165.037C297.594 165.037 297.756 164.931 297.756 164.8C297.756 164.669 297.594 164.562 297.4 164.562C297.206 164.562 297.044 164.669 297.044 164.8ZM297.681 165.194C297.594 165.281 297.525 191.031 297.531 222.419L297.544 279.481L307.706 289.506C316.206 297.887 329.019 310.544 334.1 315.569C334.787 316.25 336.269 317.775 337.381 318.956C338.494 320.137 339.544 321.112 339.706 321.119C339.944 321.131 340.006 309.55 340.006 263.962V206.794L338.906 205.787C338.031 204.973 337.175 204.14 336.337 203.287C335.062 201.994 331.6 198.519 326.606 193.531C325.837 192.762 323.7 190.594 321.862 188.725C320.025 186.856 318.525 185.381 318.525 185.456C318.525 185.531 317.8 184.831 316.912 183.9C315.16 182.091 313.389 180.299 311.6 178.525C307.512 174.456 306.6 173.538 301.619 168.5C298.262 165.106 297.994 164.881 297.675 165.2L297.681 165.194ZM382.875 165.569C382.794 165.862 382.731 191.594 382.731 222.75V279.394L410.775 307.419C433.006 329.631 438.944 335.444 439.419 335.444H440.012V221.581L411.731 193.306C396.175 177.756 383.356 165.031 383.237 165.031C383.119 165.031 382.963 165.275 382.881 165.569H382.875Z" fill="#3B3E43"/>
<path d="M382.481 164.975C382.375 185.388 382.419 279.281 382.537 279.156C382.769 278.925 382.894 164.794 382.656 164.794C382.608 164.794 382.562 164.813 382.528 164.847C382.494 164.881 382.475 164.927 382.475 164.975H382.481ZM297.062 221.544C297.075 252.619 297.169 278.319 297.275 278.644C297.381 278.969 297.5 253.544 297.55 222.138C297.619 176.575 297.575 165.038 297.337 165.038C297.1 165.038 297.044 176.481 297.062 221.544ZM340.119 263.963C340.119 295.469 340.15 308.319 340.181 292.525C340.212 276.731 340.219 250.956 340.181 235.244C340.144 219.538 340.119 232.456 340.119 263.963ZM375.319 286.219L373.775 287.831L375.387 286.288C376.887 284.856 377.106 284.606 376.931 284.606C376.894 284.606 376.169 285.331 375.319 286.219ZM265.712 195.825C265.487 196.088 265.387 196.3 265.487 196.3C265.587 196.3 265.856 196.081 266.081 195.825C266.306 195.563 266.406 195.35 266.306 195.35C266.206 195.35 265.937 195.569 265.712 195.825ZM256.119 205.356C256.031 205.5 256.044 205.613 256.156 205.613C256.269 205.613 256.187 205.719 255.994 205.85C255.744 206.013 255.731 206.081 255.944 206.088C256.112 206.088 256.312 205.925 256.387 205.719C256.556 205.275 256.35 204.994 256.125 205.356H256.119ZM365.619 295.75C364.412 296.975 363.506 298.013 363.587 298.063C363.669 298.113 364.731 297.144 365.944 295.925C367.156 294.706 368.069 293.663 367.975 293.613C367.881 293.563 366.819 294.525 365.619 295.75ZM263.731 312.831L263.031 313.606L263.806 312.906C264.088 312.672 264.347 312.413 264.581 312.131C264.581 311.95 264.387 312.106 263.731 312.831ZM241.55 334.731C241.312 334.994 241.175 335.206 241.237 335.206C241.3 335.206 241.606 334.988 241.906 334.731C242.206 334.475 242.35 334.256 242.219 334.256C242.087 334.256 241.787 334.475 241.55 334.731Z" fill="black"/>
<path d="M452.5 214.583C452.5 203.533 449.427 192.935 443.958 185.121C438.485 177.308 431.067 172.917 423.333 172.917C431.069 172.917 438.488 168.527 443.958 160.713C449.425 152.9 452.5 142.3 452.5 131.25C452.5 142.3 455.573 152.898 461.042 160.713C466.513 168.525 473.931 172.917 481.667 172.917C473.931 172.917 466.513 177.306 461.042 185.121C455.573 192.933 452.5 203.533 452.5 214.583ZM412.917 172.917C412.917 167.392 411.379 162.092 408.646 158.185C405.91 154.279 402.202 152.083 398.333 152.083C402.202 152.083 405.91 149.888 408.646 145.981C411.381 142.075 412.917 136.775 412.917 131.25C412.917 136.775 414.454 142.075 417.188 145.981C419.923 149.888 423.631 152.083 427.5 152.083C423.631 152.083 419.923 154.279 417.188 158.185C414.452 162.092 412.917 167.392 412.917 172.917ZM425.417 220.833C425.417 215.308 423.879 210.008 421.146 206.102C418.41 202.196 414.702 200 410.833 200C414.702 200 418.41 197.804 421.146 193.898C423.881 189.992 425.417 184.692 425.417 179.167C425.417 184.692 426.954 189.992 429.688 193.898C432.423 197.804 436.131 200 440 200C436.131 200 432.423 202.196 429.688 206.102C426.952 210.008 425.417 215.308 425.417 220.833Z" fill="#FAAD14"/>
<path d="M499.36 268.152H508.576V285.624C508.576 288.408 509.44 288.888 514.528 288.888C516.832 288.888 527.872 288.888 530.944 288.888C535.36 288.888 536.128 287.352 536.608 277.08C538.528 278.52 542.464 279.864 544.864 280.44C543.808 293.88 541.12 297.144 531.616 297.144C529.216 297.144 515.968 297.144 513.664 297.144C502.336 297.144 499.36 294.552 499.36 285.72V268.152ZM508.576 264.792L514.528 259.128C521.536 262.584 530.176 268.248 534.496 272.568L528.064 278.808C524.032 274.584 515.68 268.536 508.576 264.792ZM542.656 269.208L550.72 265.848C556.192 273.048 561.952 282.744 563.968 289.368L555.136 293.208C553.312 286.68 548.032 276.696 542.656 269.208ZM486.496 266.712L494.656 269.688C492.352 277.656 488.992 287.544 484.288 293.88L476.128 289.464C480.736 283.608 484.384 274.392 486.496 266.712ZM485.536 214.104H553.696V258.456H485.536V214.104ZM494.176 239.928V250.584H515.296V239.928H494.176ZM524.128 239.928V250.584H544.768V239.928H524.128ZM494.176 222.072V232.44H515.296V222.072H494.176ZM524.128 222.072V232.44H544.768V222.072H524.128ZM621.664 252.888V259.992H647.872V252.888H621.664ZM621.664 239.544V246.552H647.872V239.544H621.664ZM616.192 271.416L624.256 273.72C621.184 280.728 616.48 288.6 612.544 293.592C610.912 292.248 607.456 290.136 605.44 289.08C609.472 284.472 613.6 277.656 616.192 271.416ZM643.456 273.624L651.328 270.552C654.88 276.408 659.392 284.28 661.6 288.984L653.152 292.728C651.232 287.832 646.912 279.672 643.456 273.624ZM575.872 217.272L581.152 210.936C586.24 213.72 593.536 218.04 597.184 220.728L591.712 228.024C588.256 225.144 580.96 220.536 575.872 217.272ZM571.168 243.192L576.448 236.76C581.536 239.352 588.832 243.384 592.576 245.976L587.2 253.272C583.648 250.584 576.448 246.168 571.168 243.192ZM572.896 292.824C577.024 285.336 582.784 272.76 587.008 261.72L594.4 266.712C590.56 276.984 585.568 288.6 581.056 297.816L572.896 292.824ZM600.16 214.776H659.584V223.032H608.992V241.272C608.992 258.168 607.36 282.84 595.936 298.872C594.304 297.432 590.464 295.032 588.256 294.072C599.104 278.808 600.16 257.016 600.16 241.272V214.776ZM630.112 223.608L640.192 225.528L636.352 232.824H656.32V266.808H638.656V290.136C638.656 294.264 637.984 296.472 635.008 297.72C632.032 298.968 627.808 299.064 621.568 298.968C621.184 296.76 620.128 293.496 619.168 291.192C623.2 291.384 627.232 291.288 628.384 291.288C629.632 291.288 630.016 290.904 630.016 289.848V266.808H613.6V232.824H627.424C628.384 229.848 629.536 226.296 630.112 223.608ZM672.064 217.848L676.576 211.224C682.048 214.008 689.632 218.424 693.472 221.496L688.672 228.984C685.024 225.72 677.632 220.92 672.064 217.848ZM667.168 243.864L671.584 237.144C676.96 239.544 684.448 243.672 688.192 246.648L683.68 254.232C680.128 251.064 672.736 246.648 667.168 243.864ZM669.376 291.192C673.792 283.992 680.128 271.8 684.928 260.856L690.88 266.904C686.56 276.984 681.088 288.408 676.288 297.528L669.376 291.192ZM714.976 298.104C714.4 296.088 712.768 292.44 711.52 290.616C713.152 289.752 715.072 288.024 715.072 284.184L715.168 235.704C725.248 233.976 736.768 231.384 743.488 228.408L750.592 235.512C746.464 237.048 741.472 238.392 736.384 239.544C737.248 246.36 738.496 252.888 740.032 258.936C743.776 255.672 747.712 251.832 750.4 248.76L756.736 255.384C751.84 259.128 746.752 263.256 742.24 266.328C745.792 276.504 750.688 284.76 757.696 289.752C755.584 291.48 752.608 294.936 751.168 297.432C737.92 286.488 732.064 265.656 728.896 241.08L723.136 242.136V284.952L736 279.864C736.288 282.264 737.056 285.432 737.728 287.16C719.584 294.936 716.704 296.568 714.976 298.104ZM698.752 219.768C715.072 217.656 733.888 214.104 744.832 210.168L752.032 217.56C739.744 221.592 722.656 224.664 707.104 226.68V244.056C707.104 260.088 705.472 283.8 695.104 299.544C693.568 298.104 689.92 295.896 687.904 295.128C697.888 280.248 698.752 259.032 698.752 244.056V219.768Z" fill="black"/>
</svg>
